/* XPM */
static char *_3cc1269749344cca9f19ee5b3eacf02[] = {
/* columns rows colors chars-per-pixel */
"64 64 99 2 ",
"   c None",
".  c #276096",
"X  c #276198",
"o  c #276298",
"O  c #27639A",
"+  c #27649B",
"@  c #27649C",
"#  c #27659D",
"$  c #27659E",
"%  c #27669F",
"&  c #2767A1",
"*  c #2768A1",
"=  c #2768A2",
"-  c #2768A3",
";  c #2769A3",
":  c #2769A4",
">  c #276AA5",
",  c #276AA6",
"<  c #276BA7",
"1  c #276BA8",
"2  c #276DAA",
"3  c #276DAB",
"4  c #276DAC",
"5  c #276EAC",
"6  c #276EAD",
"7  c #276EAE",
"8  c #276FAE",
"9  c #276FAF",
"0  c #2770AF",
"q  c #2670B0",
"w  c #2770B0",
"e  c #2670B1",
"r  c #2671B2",
"t  c #2672B2",
"y  c #2672B3",
"u  c #2572B4",
"i  c #2573B6",
"p  c #2574B6",
"a  c #2474B7",
"s  c #2475B7",
"d  c #2277BB",
"f  c #2475B8",
"g  c #2277BC",
"h  c #2178BD",
"j  c #2278BC",
"k  c #2178BE",
"l  c #2B7FBD",
"z  c #1F7AC1",
"x  c #1E7BC2",
"c  c #1E7BC3",
"v  c #1B7EC7",
"b  c #1D7CC4",
"n  c #1A7EC8",
"m  c #1B7EC8",
"M  c #1A7FC9",
"N  c #1B7FC9",
"B  c #1A7FCA",
"V  c #2A81BF",
"C  c #1781CD",
"Z  c #1682CE",
"A  c #1782CE",
"S  c #1682CF",
"D  c #1683CF",
"F  c #1881CD",
"G  c #0F88D8",
"H  c #0F88D9",
"J  c #0F89D9",
"K  c #0E89DB",
"L  c #1583D0",
"P  c #1385D3",
"I  c #1484D2",
"U  c #1285D4",
"Y  c #1385D4",
"T  c #1286D4",
"R  c #1286D5",
"E  c #1087D7",
"W  c #1187D7",
"Q  c #1087D8",
"!  c #2982C0",
"~  c #2A82C0",
"^  c #2884C2",
"/  c #2885C2",
"(  c #2885C3",
")  c #2788C4",
"_  c #2689C5",
"`  c #258BC6",
"'  c #258BC7",
"]  c #2B8EC5",
"[  c #288EC7",
"{  c #2A8EC6",
"}  c #2D8EC4",
"|  c #2E8EC4",
" . c #258DC8",
".. c #268EC8",
"X. c #338DC0",
"o. c #318EC1",
"O. c #308EC2",
"+. c #318EC2",
"@. c #348DC0",
/* pixels */
"                                                                                                                                ",
"                                                                                                                                ",
"                                        l                                                                                       ",
"                                      V l                                                                   X .                 ",
"                                    ^ ~ l                                                                 + o .                 ",
"                                    / ~ l                                                                 @ o .                 ",
"                                  ) / ~ l                                                               & @ o .                 ",
"                                ` ) / ~ l                                                             , & @ o .                 ",
"                               .` ) / ~ l                                                           3 , & @ o .                 ",
"                            .. .` ) / ~ l                                                         0 3 , & @ o .                 ",
"                            .. .` ) / ~ l                                                         q 3 , & @ o .                 ",
"                          [ .. .` ) / ~ l                                                       i q 3 , & @ o .                 ",
"                        { [ .. .` ) / ~ l                                 #                   d i w 3 , & @ o .                 ",
"                      } { [ .. .` ) / ~ l                               & #                 z g i w 3 , & @ o .                 ",
"                    O.| { [ .. .` ) / ~ l                             > & #               v x g i w 3 , & @ o .                 ",
"                    +.| { [ .. .` ) / ~ l                             , * #               n x g i w 3 , & @ o .                 ",
"                  X.+.| { [ .. .` ) / ~ l                           2 , & #             A n x g i w 3 , & @ o .                 ",
"                  @.+.| { [ .. .` ) / ~ l                         8 2 , & #           U Z n x g i w 3 , & @ o .                 ",
"                  @.+.| { [ .. .` ) / ~ l                       y 9 2 , & # O       H T Z n x g i w 3 , & @ o .                 ",
"                  @.+.| { [ .. .` ) / !                         y 9 2 , & # O       H T Z n x g i w 3 , & @ o .                 ",
"                  @.+.| { [ .. .` ) /                         f y 9 2 , & #           U Z n x g i w 3 , & @ o .                 ",
"                  @.+.| { [ .. .` ) (                       h f y 9 2 , & $             Z n x g i w 3 , & @ o .                 ",
"                  @.+.| { [ .. .` _                       x h f y 9 2 , =                 n x g i w 3 , & @ o .                 ",
"                  @.+.| { [ .. .'                       v c h f y 9 2 ,                   m x g i w 3 , & @ o .                 ",
"                  @.+.| { [ .. .        $               m c h f y 9 2 , & #           U Z n x g i w 3 , & @ o .                 ",
"                  @.+.| { [ ..        - $             C m c h f y 9 2 , & #           U Z n x g i w 3 , & @ o .                 ",
"                  @.+.| { [ ..      < ; $           I C m c h f y 9 2 , & #           U Z n x g i w 3 , & @ o .                 ",
"                  @.+.| { [       4 1 ; $         W P C m c h f y 9 2 , & #           U Z n x g i w 3 , & @ o .                 ",
"                  @.+.| ]         6 1 ; $       K Q P C m c h f y 9 2 , & #           U Z n x g i w 3 , & @ o .                 ",
"                  @.+.|         r 6 1 ; $ O     K E P C m c h f y 9 2 , & #           U Z n x g i w 3 , & @ o .                 ",
"                  @.+.        a t 6 1 ; $ +       W P C m c h f y 9 2 , & #           U Z n x g i w 3 , & @ o .                 ",
"                  X.o.      g s r 6 1 - %           I C m c h f y 9 2 , & #           U Z n x g i w 3 , & @ o .                 ",
"                  @.      x h a r 6 1 :               F m c h f y 9 2 , & #           U Z n x g i w 3 , & @ o .                 ",
"                          c h a r 6 1                   m c h f y 9 2 , & #           U Z n x g i w 3 , & @ o .                 ",
"                        N c h a r 6 1 ; $           P C m c h f y 9 2 , & #           U Z n x g i w 3 , & @ o .                 ",
"                      S M c h a r 6 1 ; $           P C m c h f y 9 2 , & #           U Z n x g i w 3 , & @ o .                 ",
"                    Y S M c h a r 6 1 ; $           P C m c h f y 9 2 , =             U Z n x g i w 3 , & @ o .                 ",
"                  G R S M c h a r 6 1 ; $           P C m c h f y 9 2 ,               U Z n x g i w 3 , & @ o .                 ",
"                  H R S M c h a r 6 1 ; $           P C m c h f y 9 2                 U Z n x g i w 3 , & @ o .                 ",
"                  J R S M c h a r 6 1 ; $           P C m c h f y 9                   U Z n x g i w 3 , & @ o .                 ",
"                  J R S M c h a r 6 1 ; $           P C m c h f u                     U Z n x g i w 3 , & @ o .                 ",
"                  J R S M c h a r 6 1 ; $           P C m c h f                       U Z n x g i w 3 , & @ o .                 ",
"                  J R S M c h a r 6 1 ; $           P C m c k                         U Z n x g i w 3 , & @ o .                 ",
"                  J R S M c h a r 6 1 ; $           P C m c                           U Z n x g i w 3 , & @ o .                 ",
"                  J R S M c h a r 6 1 ; $           P C n                             U Z n x g i w 3 , & @ o .                 ",
"                  J R S M c h a r 6 1 ; $           P A                               U Z n x g i w 3 , & @ o .                 ",
"                  J R S M c h a r 6 1 ; $           P                                 U Z n x g i w 3 , & @ o .                 ",
"                  J R S M c h a r 6 1 ; $                                             U Z n x g i w 3 , & @ o .                 ",
"                  J R S M c h a r 6 1 ; $                                             U Z n x g i w 3 , & @ o .                 ",
"                  J R S M c h a r 6 1 ; $                                             U Z n x g i w 3 , & @ o .                 ",
"                  J R S M c h a r 6 1 ; $                                             U Z n x g i w 3 , & @ o .                 ",
"                  J R S M c h a r 6 1 - %                                             U Z n x g i w 3 , & @ o                   ",
"                  J R S M c h a r 6 1 :                                               U Z n x g i w 3 , & @                     ",
"                  J R S M c h a r 6 1                                                 U Z n x g i w 3 , &                       ",
"                  J R S M c h a r 7                                                   U Z n x g i w 3 ,                         ",
"                  J R S M c h a y                                                     U Z n x g i w 5                           ",
"                  J R S M c h f                                                       U Z n x g i e                             ",
"                  J R S M c k                                                         U Z n x g p                               ",
"                  J R S M b                                                           U Z n x j                                 ",
"                  J R S B                                                             U Z n c                                   ",
"                  J R L                                                               U Z M                                     ",
"                  J                                                                   U D                                       ",
"                                                                                      R                                         ",
"                                                                                                                                "
};
