/* XPM */
static char *ba47931000cd4747bfadb238573b95f8[] = {
/* columns rows colors chars-per-pixel */
"16 16 43 1 ",
"  c None",
". c #27639B",
"X c #27649C",
"o c #27649D",
"O c #27659D",
"+ c #27669E",
"@ c #28659E",
"# c #276CA9",
"$ c #276CAA",
"% c #276DAA",
"& c #276DAB",
"* c #266DAC",
"= c #266EAC",
"- c #266EAD",
"; c #266FAE",
": c #2670AF",
"> c #2277BC",
", c #2078BE",
"< c #1F79C0",
"1 c #1F7AC0",
"2 c #1F7AC1",
"3 c #1E7BC3",
"4 c #1B7EC7",
"5 c #1D7CC4",
"6 c #1C7CC5",
"7 c #1D7CC5",
"8 c #1C7DC5",
"9 c #2079C0",
"0 c #1583D1",
"q c #1384D3",
"w c #1584D1",
"e c #1484D2",
"r c #1385D4",
"t c #2787C3",
"y c #2884C1",
"u c #2886C3",
"i c #2688C3",
"p c #268DC7",
"a c #278EC7",
"s c #288EC7",
"d c #298EC7",
"f c #328EC1",
"g c #308EC2",
/* pixels */
"                ",
"    y        .  ",
"   pu       %O  ",
"   au      9;o  ",
"  gst   $+ 7;X  ",
"  gsi  >-  5;X  ",
"  gd   <=@ 6;X  ",
"  f # e1=@ 8;X  ",
"   ,*  <=@ 8;X  ",
"  q2% w1;  8;X  ",
"  r2% 03   8;X  ",
"  r2%      8;X  ",
"  r2&      8;O  ",
"  r2;      6:   ",
"  r8       4    ",
"                "
};
