/* XPM */
static char *_9686eeb56234590ad5e98efa9c4f4f0[] = {
/* columns rows colors chars-per-pixel */
"32 32 71 1 ",
"  c None",
". c #276198",
"X c #276298",
"o c #27649C",
"O c #27659D",
"+ c #27659E",
"@ c #27669E",
"# c #27669F",
"$ c #2766A0",
"% c #2767A0",
"& c #2769A5",
"* c #276AA5",
"= c #276AA6",
"- c #276AA7",
"; c #276BA7",
": c #276BA8",
"> c #276CA8",
", c #276CA9",
"< c #276DAA",
"1 c #276FAE",
"2 c #2670B0",
"3 c #2671B1",
"4 c #2671B2",
"5 c #2672B3",
"6 c #2573B5",
"7 c #2375B8",
"8 c #2376B9",
"9 c #2276BA",
"0 c #2376BA",
"q c #2276BB",
"w c #2376BB",
"e c #2277BB",
"r c #2277BC",
"t c #2178BD",
"y c #2079BF",
"u c #2B7FBD",
"i c #1F7AC1",
"p c #1E7BC3",
"a c #1C7CC5",
"s c #1C7DC5",
"d c #1C7DC6",
"f c #1B7EC8",
"g c #197FCA",
"h c #1782CE",
"j c #1683CF",
"k c #1880CB",
"l c #1980CB",
"z c #1880CC",
"x c #0F89D9",
"c c #0F89DA",
"v c #1583D0",
"b c #1683D0",
"n c #1584D1",
"m c #1484D2",
"M c #1285D4",
"N c #1286D4",
"B c #1186D6",
"V c #1088D8",
"C c #2983C0",
"Z c #2983C1",
"A c #2689C5",
"S c #268AC5",
"D c #258BC6",
"F c #2F8EC2",
"G c #2F8EC3",
"H c #298EC6",
"J c #258DC8",
"K c #258EC8",
"L c #268EC8",
"P c #318EC2",
"I c #348DC0",
/* pixels */
"                                ",
"          u                     ",
"         Cu               oX    ",
"        AZu               +X    ",
"       JSZu              :#.    ",
"       KSZu             4,@.    ",
"      HLSZu       +    t5,@.    ",
"     GHKSZu       #    y5,@.    ",
"    IGHKSZu      :$   ly5,@.    ",
"    IGHKAZ      2:#  Bzy5,@.    ",
"    IGHKS      83:%   ky5,@.    ",
"    IGHLD     pq3>    gy5,@.    ",
"    IGHL  +   sq3:#  Nzy5,@.    ",
"    IGH  &+  bsq3:#  Nzy5,@.    ",
"    IF  1=O Vvsq3:#  Nzy5,@.    ",
"    IP 72=+  jsq3:#  Nzy5,@.    ",
"       02-    aq3:#  Nzy5,@.    ",
"      d92=+  bsq3:$  Nzy5,@.    ",
"     nd02*+  vsq3>   Nzy5,@.    ",
"    xmd02*+  vsw3    Nzy5,@.    ",
"    cmd02*+  vse     Nzy5,@.    ",
"    cmd02*+  bd      Nzy5,@.    ",
"    cmd02*+  v       Nzy5,@.    ",
"    cmd02*+          Nzy5,@.    ",
"    cmd02*+          Nzy5,@.    ",
"    cmd02*+          Nzy5,#X    ",
"    cmd02;           Nzy5,$     ",
"    cmd03            Nzy5<      ",
"    cmdr             Nzy6       ",
"    cmf              Mzi        ",
"    cN               Mh         ",
"                                "
};
